<svg width="30" height="30" viewBox="0 0 30 30" fill="none" xmlns="http://www.w3.org/2000/svg">
<path d="M25.3963 5.1945C23.4842 4.31715 21.4337 3.67075 19.2899 3.30053C19.2508 3.29339 19.2118 3.31124 19.1917 3.34696C18.928 3.81598 18.6359 4.42785 18.4314 4.90878C16.1255 4.56357 13.8315 4.56357 11.5729 4.90878C11.3683 4.41716 11.0656 3.81598 10.8007 3.34696C10.7806 3.31244 10.7416 3.29458 10.7026 3.30053C8.55989 3.66957 6.50945 4.31596 4.59617 5.1945C4.57961 5.20164 4.56541 5.21355 4.55599 5.22902C0.66674 11.0395 -0.398688 16.7071 0.123975 22.3045C0.12634 22.3319 0.141712 22.358 0.162998 22.3747C2.72901 24.2591 5.21463 25.4031 7.6541 26.1614C7.69314 26.1733 7.73451 26.159 7.75935 26.1269C8.33641 25.3389 8.8508 24.5079 9.29184 23.6341C9.31787 23.583 9.29303 23.5223 9.23983 23.502C8.42392 23.1925 7.647 22.8151 6.89966 22.3866C6.84055 22.3521 6.83582 22.2675 6.8902 22.2271C7.04747 22.1092 7.20477 21.9866 7.35494 21.8628C7.38211 21.8402 7.41997 21.8354 7.45192 21.8497C12.3616 24.0913 17.6769 24.0913 22.5287 21.8497C22.5606 21.8342 22.5985 21.839 22.6268 21.8616C22.7771 21.9854 22.9343 22.1092 23.0928 22.2271C23.1472 22.2675 23.1436 22.3521 23.0845 22.3866C22.3372 22.8235 21.5602 23.1925 20.7431 23.5008C20.6899 23.5211 20.6663 23.583 20.6923 23.6341C21.1428 24.5067 21.6572 25.3376 22.2236 26.1257C22.2473 26.159 22.2898 26.1733 22.3289 26.1614C24.7802 25.4031 27.2658 24.2591 29.8318 22.3747C29.8543 22.358 29.8685 22.333 29.8708 22.3057C30.4964 15.8345 28.8231 10.2133 25.4353 5.2302C25.427 5.21355 25.4128 5.20164 25.3963 5.1945ZM10.025 18.8963C8.54687 18.8963 7.32892 17.5392 7.32892 15.8726C7.32892 14.206 8.52325 12.8489 10.025 12.8489C11.5386 12.8489 12.7448 14.2179 12.7211 15.8726C12.7211 17.5392 11.5268 18.8963 10.025 18.8963ZM19.9934 18.8963C18.5153 18.8963 17.2974 17.5392 17.2974 15.8726C17.2974 14.206 18.4917 12.8489 19.9934 12.8489C21.507 12.8489 22.7132 14.2179 22.6895 15.8726C22.6895 17.5392 21.507 18.8963 19.9934 18.8963Z" fill="white"/>
</svg>
