<svg width="30" height="23" viewBox="0 0 30 23" fill="none" xmlns="http://www.w3.org/2000/svg">
<g clip-path="url(#clip0_4_1025)">
<path d="M15 0C6.7158 0 0 5.14878 0 11.5C0 16.893 4.8432 21.4185 11.3766 22.6614V15.0144H8.2836V11.5H11.3766V9.98568C11.3766 6.07154 13.6872 4.2573 18.6996 4.2573C19.65 4.2573 21.2898 4.40036 21.9606 4.54296V7.72846C21.6066 7.69994 20.9916 7.68568 20.2278 7.68568C17.7684 7.68568 16.818 8.40006 16.818 10.2571V11.5H21.7176L20.8758 15.0144H16.818V22.9158C24.2454 22.2281 30.0006 17.3797 30.0006 11.5C30 5.14878 23.2842 0 15 0Z" fill="white"/>
</g>
<defs>
<clipPath id="clip0_4_1025">
<rect width="30" height="23" fill="white"/>
</clipPath>
</defs>
</svg>
